<svg xmlns="http://www.w3.org/2000/svg" width="1086.784" height="774.079" viewBox="0 0 1086.784 774.079"><defs><style>.a{fill:#fb3853;}</style></defs><g transform="translate(702.921 479.664) rotate(135)"><path class="a" d="M504.579,128.063c47.982,76.081,54.774,199.356,43.7,299.238-11.22,99.678-4.025,143-28.532,243.494-24.36,100.492-44.439,224.988-99.065,279.1-54.774,53.907-144.39,37.43-197.835-27.666-53.593-64.893-71.162-178.4-121.211-276.251C51.439,547.926,8.125,488.127,1.038,403.3-6.049,318.267,22.945,208.207,94.4,137.822S240.121,13.733,321.912,1.527,456.6,51.982,504.579,128.063Z" transform="translate(-442.586 -100.279) rotate(-31)"/></g></svg>